<svg xmlns="http://www.w3.org/2000/svg" viewBox="0 0 600 500" width="600" height="500">
  <defs>
    <!-- Cosmic Star Gradients -->
    <linearGradient id="starBgGrad" x1="0%" y1="0%" x2="100%" y2="100%">
      <stop offset="0%" stop-color="#0f172a"/>
      <stop offset="50%" stop-color="#1e1b4b"/>
      <stop offset="100%" stop-color="#312e81"/>
    </linearGradient>

    <linearGradient id="starGoldGrad" x1="0%" y1="0%" x2="100%" y2="100%">
      <stop offset="0%" stop-color="#fef08a"/>
      <stop offset="40%" stop-color="#f59e0b"/>
      <stop offset="100%" stop-color="#d97706"/>
    </linearGradient>

    <linearGradient id="glowCyan" x1="0%" y1="0%" x2="100%" y2="0%">
      <stop offset="0%" stop-color="#00f2fe"/>
      <stop offset="100%" stop-color="#38bdf8"/>
    </linearGradient>

    <!-- Filters for Cosmic Glow -->
    <filter id="starShadow" x="-30%" y="-30%" width="160%" height="160%">
      <feDropShadow dx="0" dy="10" stdDeviation="12" flood-color="#4f46e5" flood-opacity="0.4"/>
    </filter>
    <filter id="goldGlow" x="-30%" y="-30%" width="160%" height="160%">
      <feGaussianBlur stdDeviation="4" result="blur"/>
      <feComposite in="SourceGraphic" in2="blur" operator="over"/>
    </filter>
  </defs>

  <!-- Main Shield Emblem -->
  <g filter="url(#starShadow)">
    <!-- Base Shield Circle -->
    <circle cx="300" cy="180" r="142" fill="url(#starBgGrad)"/>
    <!-- Outer Glowing Rings -->
    <circle cx="300" cy="180" r="135" fill="none" stroke="#fbbf24" stroke-width="3" opacity="0.85"/>
    <circle cx="300" cy="180" r="125" fill="none" stroke="#38bdf8" stroke-width="2" stroke-dasharray="6 6" opacity="0.75"/>

    <!-- Wi-Fi Signal Arcs Over Cosmic Ring -->
    <g stroke="url(#glowCyan)" stroke-width="5.5" fill="none" stroke-linecap="round" filter="url(#goldGlow)">
      <path d="M 210 115 A 105 105 0 0 1 390 115" opacity="0.45"/>
      <path d="M 230 132 A 80 80 0 0 1 370 132" opacity="0.75"/>
      <path d="M 250 149 A 55 55 0 0 1 350 149" opacity="0.95"/>
    </g>

    <!-- Central Classic 5-Pointed Star Emblem -->
    <g transform="translate(300, 195) scale(1.4)">
      <!-- Outer Glow Star -->
      <polygon points="0,-38 8.9,-12.3 36.1,-11.7 14.5,8.6 22.3,30.7 0,15.2 -22.3,30.7 -14.5,8.6 -36.1,-11.7 -8.9,-12.3" fill="url(#starGoldGrad)" filter="url(#goldGlow)"/>
      <!-- Inner White Star Core -->
      <polygon points="0,-24 5.6,-7.7 22.8,-7.4 9.1,5.4 14.1,19.4 0,9.6 -14.1,19.4 -9.1,5.4 -22.8,-7.4 -5.6,-7.7" fill="#ffffff" opacity="0.9"/>
      <!-- Center Orb -->
      <circle cx="0" cy="0" r="7" fill="#f59e0b"/>
    </g>

    <!-- Sparkle Stars -->
    <g fill="#ffffff">
      <polygon points="190,125 192,129 196,130 192,131 190,135 188,131 184,130 188,129" fill="#ffffff"/>
      <polygon points="410,125 412,129 416,130 412,131 410,135 408,131 404,130 408,129" fill="#ffffff"/>
      <circle cx="425" cy="210" r="2.5" fill="#fbbf24"/>
      <circle cx="175" cy="210" r="2.5" fill="#38bdf8"/>
    </g>
  </g>

  <!-- Network Title & Typography -->
  <g text-anchor="middle">
    <!-- Arabic Network Name -->
    <text x="300" y="375" font-family="'Segoe UI', Tahoma, Arial, sans-serif" font-size="46" font-weight="900" fill="#1e1b4b" letter-spacing="1">ستار نت</text>
    
    <!-- English Subtitle -->
    <text x="300" y="415" font-family="'Segoe UI', Arial, sans-serif" font-size="20" font-weight="800" fill="#4f46e5" letter-spacing="7">STAR NET</text>
    
    <!-- Tagline Badge -->
    <rect x="175" y="435" width="250" height="32" rx="16" fill="#eef2ff" stroke="#c7d2fe" stroke-width="1.5"/>
    <text x="300" y="456" font-family="'Segoe UI', Arial, sans-serif" font-size="13.5" font-weight="800" fill="#312e81">شبكة الاتصالات الفائقة ⚡</text>
  </g>
</svg>